<mxfile host="drawio-plugin" modified="2025-10-16T14:09:01.709Z" agent="Mozilla/5.0 (Windows NT 10.0; Win64; x64) AppleWebKit/537.36 (KHTML, like Gecko) Chrome/122.0.0.0 Safari/537.36" etag="YMADk2FpAG7nvt_ugpDm" version="22.1.22" type="embed">
  <diagram name="Schema 2: Replication" id="schema2">
    <mxGraphModel dx="1889" dy="527" grid="1" gridSize="10" guides="1" tooltips="1" connect="1" arrows="1" fold="1" page="1" pageScale="1" pageWidth="1600" pageHeight="1000" math="0" shadow="0">
      <root>
        <mxCell id="0" />
        <mxCell id="1" parent="0" />
        <mxCell id="api" value="pymongo-api" style="rounded=1;whiteSpace=wrap;html=1;fillColor=#dae8fc;strokeColor=#6c8ebf;" parent="1" vertex="1">
          <mxGeometry x="200" y="450" width="120" height="60" as="geometry" />
        </mxCell>
        <mxCell id="mongos" value="mongos_router&#xa;(Router)" style="rounded=1;whiteSpace=wrap;html=1;fillColor=#fff2cc;strokeColor=#d6b656;" parent="1" vertex="1">
          <mxGeometry x="400" y="450" width="120" height="60" as="geometry" />
        </mxCell>
        <mxCell id="config" value="configSrv&#xa;(Config Server)" style="shape=cylinder3;whiteSpace=wrap;html=1;boundedLbl=1;backgroundOutline=1;size=15;fillColor=#e1d5e7;strokeColor=#9673a6;" parent="1" vertex="1">
          <mxGeometry x="420" y="280" width="80" height="100" as="geometry" />
        </mxCell>
        <mxCell id="shard1_group" value="Replica Set: shard1" style="rounded=1;whiteSpace=wrap;html=1;fillColor=#d5e8d4;strokeColor=#82b366;dashed=1;verticalAlign=top;align=center;" parent="1" vertex="1">
          <mxGeometry x="600" y="200" width="320" height="200" as="geometry" />
        </mxCell>
        <mxCell id="shard1-1" value="shard1-1&#xa;(PRIMARY)" style="shape=cylinder3;whiteSpace=wrap;html=1;boundedLbl=1;backgroundOutline=1;size=15;fillColor=#d5e8d4;strokeColor=#82b366;fontStyle=1" parent="1" vertex="1">
          <mxGeometry x="620" y="240" width="80" height="100" as="geometry" />
        </mxCell>
        <mxCell id="shard1-2" value="shard1-2&#xa;(SECONDARY)" style="shape=cylinder3;whiteSpace=wrap;html=1;boundedLbl=1;backgroundOutline=1;size=15;fillColor=#d5e8d4;strokeColor=#82b366;" parent="1" vertex="1">
          <mxGeometry x="720" y="240" width="80" height="100" as="geometry" />
        </mxCell>
        <mxCell id="shard1-3" value="shard1-3&#xa;(SECONDARY)" style="shape=cylinder3;whiteSpace=wrap;html=1;boundedLbl=1;backgroundOutline=1;size=15;fillColor=#d5e8d4;strokeColor=#82b366;" parent="1" vertex="1">
          <mxGeometry x="820" y="240" width="80" height="100" as="geometry" />
        </mxCell>
        <mxCell id="shard2_group" value="Replica Set: shard2" style="rounded=1;whiteSpace=wrap;html=1;fillColor=#d5e8d4;strokeColor=#82b366;dashed=1;verticalAlign=top;align=center;" parent="1" vertex="1">
          <mxGeometry x="600" y="500" width="320" height="200" as="geometry" />
        </mxCell>
        <mxCell id="shard2-1" value="shard2-1&#xa;(PRIMARY)" style="shape=cylinder3;whiteSpace=wrap;html=1;boundedLbl=1;backgroundOutline=1;size=15;fillColor=#d5e8d4;strokeColor=#82b366;fontStyle=1" parent="1" vertex="1">
          <mxGeometry x="620" y="540" width="80" height="100" as="geometry" />
        </mxCell>
        <mxCell id="shard2-2" value="shard2-2&#xa;(SECONDARY)" style="shape=cylinder3;whiteSpace=wrap;html=1;boundedLbl=1;backgroundOutline=1;size=15;fillColor=#d5e8d4;strokeColor=#82b366;" parent="1" vertex="1">
          <mxGeometry x="720" y="540" width="80" height="100" as="geometry" />
        </mxCell>
        <mxCell id="shard2-3" value="shard2-3&#xa;(SECONDARY)" style="shape=cylinder3;whiteSpace=wrap;html=1;boundedLbl=1;backgroundOutline=1;size=15;fillColor=#d5e8d4;strokeColor=#82b366;" parent="1" vertex="1">
          <mxGeometry x="820" y="540" width="80" height="100" as="geometry" />
        </mxCell>
        <mxCell id="repl1_1" style="edgeStyle=orthogonalEdgeStyle;rounded=0;orthogonalLoop=1;jettySize=auto;html=1;exitX=1;exitY=0.5;exitDx=0;exitDy=0;exitPerimeter=0;entryX=0;entryY=0.5;entryDx=0;entryDy=0;entryPerimeter=0;endArrow=classic;endFill=1;dashed=1;strokeColor=#82b366;" parent="1" source="shard1-1" target="shard1-2" edge="1">
          <mxGeometry relative="1" as="geometry" />
        </mxCell>
        <mxCell id="repl1_2" style="edgeStyle=orthogonalEdgeStyle;rounded=0;orthogonalLoop=1;jettySize=auto;html=1;exitX=1;exitY=0.5;exitDx=0;exitDy=0;exitPerimeter=0;entryX=0;entryY=0.5;entryDx=0;entryDy=0;entryPerimeter=0;endArrow=classic;endFill=1;dashed=1;strokeColor=#82b366;" parent="1" source="shard1-2" target="shard1-3" edge="1">
          <mxGeometry relative="1" as="geometry" />
        </mxCell>
        <mxCell id="repl2_1" style="edgeStyle=orthogonalEdgeStyle;rounded=0;orthogonalLoop=1;jettySize=auto;html=1;exitX=1;exitY=0.5;exitDx=0;exitDy=0;exitPerimeter=0;entryX=0;entryY=0.5;entryDx=0;entryDy=0;entryPerimeter=0;endArrow=classic;endFill=1;dashed=1;strokeColor=#82b366;" parent="1" source="shard2-1" target="shard2-2" edge="1">
          <mxGeometry relative="1" as="geometry" />
        </mxCell>
        <mxCell id="repl2_2" style="edgeStyle=orthogonalEdgeStyle;rounded=0;orthogonalLoop=1;jettySize=auto;html=1;exitX=1;exitY=0.5;exitDx=0;exitDy=0;exitPerimeter=0;entryX=0;entryY=0.5;entryDx=0;entryDy=0;entryPerimeter=0;endArrow=classic;endFill=1;dashed=1;strokeColor=#82b366;" parent="1" source="shard2-2" target="shard2-3" edge="1">
          <mxGeometry relative="1" as="geometry" />
        </mxCell>
        <mxCell id="conn1" style="edgeStyle=orthogonalEdgeStyle;rounded=0;orthogonalLoop=1;jettySize=auto;html=1;exitX=1;exitY=0.5;exitDx=0;exitDy=0;entryX=0;entryY=0.5;entryDx=0;entryDy=0;endArrow=classic;endFill=1;" parent="1" source="api" target="mongos" edge="1">
          <mxGeometry relative="1" as="geometry" />
        </mxCell>
        <mxCell id="conn2" style="edgeStyle=orthogonalEdgeStyle;rounded=0;orthogonalLoop=1;jettySize=auto;html=1;exitX=0.5;exitY=0;exitDx=0;exitDy=0;entryX=0.5;entryY=1;entryDx=0;entryDy=0;entryPerimeter=0;endArrow=classic;endFill=1;dashed=1;" parent="1" source="mongos" target="config" edge="1">
          <mxGeometry relative="1" as="geometry" />
        </mxCell>
        <mxCell id="conn3" style="edgeStyle=orthogonalEdgeStyle;rounded=0;orthogonalLoop=1;jettySize=auto;html=1;exitX=1;exitY=0.25;exitDx=0;exitDy=0;entryX=0;entryY=0.5;entryDx=0;entryDy=0;endArrow=classic;endFill=1;" parent="1" source="mongos" target="shard1_group" edge="1">
          <mxGeometry relative="1" as="geometry" />
        </mxCell>
        <mxCell id="conn4" style="edgeStyle=orthogonalEdgeStyle;rounded=0;orthogonalLoop=1;jettySize=auto;html=1;exitX=1;exitY=0.75;exitDx=0;exitDy=0;entryX=0;entryY=0.5;entryDx=0;entryDy=0;endArrow=classic;endFill=1;" parent="1" source="mongos" target="shard2_group" edge="1">
          <mxGeometry relative="1" as="geometry" />
        </mxCell>
        <mxCell id="title" value="Схема 2: MongoDB с шардированием и репликацией" style="text;html=1;strokeColor=none;fillColor=none;align=center;verticalAlign=middle;whiteSpace=wrap;rounded=0;fontSize=16;fontStyle=1" parent="1" vertex="1">
          <mxGeometry x="200" y="150" width="720" height="30" as="geometry" />
        </mxCell>
        <mxCell id="legend" value="Схема показывает репликацию для повышения отказоустойчивости:&#xa;- Каждый шард имеет 3 реплики&#xa;- 1 PRIMARY (принимает записи) + 2 SECONDARY (реплики)&#xa;- Автоматический failover при отказе PRIMARY&#xa;- Пунктирные линии показывают репликацию данных" style="text;html=1;strokeColor=#666666;fillColor=#f5f5f5;align=left;verticalAlign=top;whiteSpace=wrap;rounded=1;fontSize=10;fontColor=#333333;" parent="1" vertex="1">
          <mxGeometry x="1000" y="250" width="330" height="70" as="geometry" />
        </mxCell>
      </root>
    </mxGraphModel>
  </diagram>
</mxfile>
